<?xml version="1.0" encoding="utf-8"?>
<svg xmlns="http://www.w3.org/2000/svg" height="24px" viewBox="0 -960 960 960" width="24px" fill="#ffffff">
  <g>
    <path d="M 480 -165.984 C 382.882 -165.984 291.004 -207.404 214.562 -262.327 C 139.211 -316.466 41.075 -480 41.075 -480 C 41.075 -480 137.859 -645.468 214.562 -697.673 C 291.063 -749.741 382.813 -779 480 -779 C 577.102 -779 667.154 -731.952 747.106 -677.652 C 827.042 -623.363 918.925 -480 918.925 -480 C 918.925 -480 820.789 -316.466 745.438 -262.327 C 668.996 -207.404 577.118 -165.984 480 -165.984 Z M 480 -251.678 C 543.312 -251.678 597.404 -273.952 641.726 -318.274 C 686.048 -362.596 708.322 -416.688 708.322 -480 C 708.322 -543.312 686.048 -597.404 641.726 -641.726 C 597.404 -686.048 543.312 -708.322 480 -708.322 C 416.688 -708.322 362.596 -686.048 318.274 -641.726 C 273.952 -597.404 251.678 -543.312 251.678 -480 C 251.678 -416.688 273.952 -362.596 318.274 -318.274 C 362.596 -273.952 416.688 -251.678 480 -251.678 Z" style="fill: rgba(255, 255, 255, 0.357);"/>
    <path d="M 480 -373 C 450.19 -373 425.071 -383.343 404.207 -404.207 C 383.343 -425.071 373 -450.19 373 -480 C 373 -509.81 383.343 -534.929 404.207 -555.793 C 425.071 -576.657 450.19 -587 480 -587 C 509.81 -587 534.929 -576.657 555.793 -555.793 C 576.657 -534.929 587 -509.81 587 -480 C 587 -450.19 576.657 -425.071 555.793 -404.207 C 534.929 -383.343 509.81 -373 480 -373 Z" style="fill: rgba(255, 255, 255, 0.357);"/>
  </g>
</svg>